<svg width="104" height="105" viewBox="0 0 104 105" fill="none" xmlns="http://www.w3.org/2000/svg">
<path fill-rule="evenodd" clip-rule="evenodd" d="M97.4724 7.00959H6.93116V97.5509H97.4724V7.00959ZM4.56396 4.6424V99.9181H99.8396V4.6424H4.56396Z" fill="white"/>
<path d="M0.421387 0.5H10.4815V10.5601H0.421387V0.5Z" fill="black"/>
<path fill-rule="evenodd" clip-rule="evenodd" d="M8.11449 2.8671H2.78849V8.1931H8.11449V2.8671ZM0.421387 0.5V10.5601H10.4815V0.5H0.421387Z" fill="white"/>
<path d="M0.421387 94.0005H10.4815V104.061H0.421387V94.0005Z" fill="black"/>
<path fill-rule="evenodd" clip-rule="evenodd" d="M8.11449 96.3675H2.78849V101.693H8.11449V96.3675ZM0.421387 94.0005V104.061H10.4815V94.0005H0.421387Z" fill="white"/>
<path d="M93.9219 0.5H103.982V10.5601H93.9219V0.5Z" fill="black"/>
<path fill-rule="evenodd" clip-rule="evenodd" d="M101.615 2.8671H96.2888V8.1931H101.615V2.8671ZM93.9219 0.5V10.5601H103.982V0.5H93.9219Z" fill="white"/>
<path d="M93.9219 94.0005H103.982V104.061H93.9219V94.0005Z" fill="black"/>
<path fill-rule="evenodd" clip-rule="evenodd" d="M101.615 96.3675H96.2888V101.693H101.615V96.3675ZM93.9219 94.0005V104.061H103.982V94.0005H93.9219Z" fill="white"/>
<path fill-rule="evenodd" clip-rule="evenodd" d="M39.4877 67.6481C39.1189 67.2796 38.9739 66.7423 39.1073 66.2383L43.9306 47.9897C43.9376 47.9635 43.9453 47.9375 43.9536 47.9117C44.3864 46.5783 45.3366 45.4742 46.5904 44.8474L46.6148 44.8354L53.651 41.479C53.9579 41.3272 54.2794 41.2264 54.6052 41.1742C54.7631 40.5675 55.0898 40.0022 55.5377 39.5543L56.4829 38.6091C57.7907 37.3013 59.911 37.3013 61.2186 38.6091L68.7819 46.1724C70.0898 47.4801 70.0898 49.6003 68.7819 50.9082L67.8368 51.8533C67.3836 52.3065 66.8134 52.6312 66.2035 52.7849C66.145 53.1435 66.0272 53.4967 65.8481 53.83L62.2895 60.6573L62.278 60.6793C61.6381 61.8578 60.5704 62.7455 59.2951 63.1597C59.2693 63.1681 59.2433 63.1756 59.2173 63.1826L40.8977 68.0284C40.3937 68.1619 39.8564 68.0169 39.4877 67.6481ZM63.1949 51.9481C63.3262 52.0794 63.3556 52.2816 63.267 52.4448L63.2555 52.4666L59.6982 59.2912C59.4217 59.7947 58.9672 60.1766 58.4241 60.3623L45.3996 63.8076L50.5535 58.654C52.5315 59.7366 54.8257 59.1948 56.1717 57.8488C58.0729 55.9476 58.0729 52.8654 56.1717 50.9645C54.2708 49.0633 51.1884 49.0633 49.2875 50.9645C47.9303 52.3214 47.4901 54.654 48.494 56.5708L43.3266 61.7379L46.7509 48.7825C46.9451 48.2145 47.3537 47.7442 47.8898 47.4726L54.9227 44.1177L54.9471 44.106C55.1086 44.0252 55.3037 44.0569 55.4312 44.1844L63.1949 51.9481ZM57.5027 42.1132L65.2663 49.8769C65.3081 49.9187 65.3407 49.9352 65.3608 49.9429C65.3821 49.951 65.4074 49.956 65.4404 49.9542C65.5067 49.9508 65.6313 49.9162 65.7653 49.7821L66.7107 48.8367C66.8744 48.673 66.8744 48.4073 66.7107 48.2436L59.1474 40.6803C58.9837 40.5166 58.718 40.5166 58.5543 40.6803L57.6089 41.6257C57.4683 41.7661 57.4339 41.893 57.4305 41.9547C57.4287 41.9848 57.433 42.0065 57.4396 42.0241C57.4459 42.0406 57.4608 42.0714 57.5027 42.1132ZM51.445 55.6912C52.3341 56.5803 53.4832 56.3948 54.1005 55.7776C54.8576 55.0203 54.8576 53.7927 54.1005 53.0357C53.3433 52.2787 52.1159 52.2787 51.3587 53.0357C50.7721 53.6222 50.629 54.8751 51.445 55.6912Z" fill="white"/>
</svg>
