<svg width="25" height="24" viewBox="0 0 25 24" fill="none" xmlns="http://www.w3.org/2000/svg">
<g clip-path="url(#clip0_298_6)">
<g clip-path="url(#clip1_298_6)">
<path d="M12.7337 9.70933C12.4329 9.70933 12.135 9.76859 11.857 9.88372C11.579 9.99885 11.3265 10.1676 11.1137 10.3803C10.901 10.5931 10.7323 10.8456 10.6171 11.1236C10.502 11.4016 10.4427 11.6995 10.4427 12.0003C10.4427 12.3012 10.502 12.5991 10.6171 12.8771C10.7323 13.155 10.901 13.4076 11.1137 13.6203C11.3265 13.833 11.579 14.0018 11.857 14.1169C12.135 14.2321 12.4329 14.2913 12.7337 14.2913C13.3413 14.2913 13.9241 14.05 14.3537 13.6203C14.7834 13.1907 15.0247 12.6079 15.0247 12.0003C15.0247 11.3927 14.7834 10.81 14.3537 10.3803C13.9241 9.9507 13.3413 9.70933 12.7337 9.70933ZM12.7337 8.18133C13.2405 8.17313 13.7439 8.26586 14.2144 8.45413C14.685 8.6424 15.1135 8.92243 15.4747 9.27792C15.836 9.6334 16.123 10.0572 16.3188 10.5247C16.5147 10.9922 16.6155 11.494 16.6155 12.0008C16.6155 12.5077 16.5147 13.0095 16.3188 13.4769C16.123 13.9444 15.836 14.3683 15.4747 14.7237C15.1135 15.0792 14.685 15.3593 14.2144 15.5475C13.7439 15.7358 13.2405 15.8285 12.7337 15.8203C11.7206 15.8203 10.749 15.4179 10.0326 14.7015C9.31619 13.9851 8.91373 13.0135 8.91373 12.0003C8.91373 10.9872 9.31619 10.0156 10.0326 9.29918C10.749 8.58279 11.7206 8.18133 12.7337 8.18133ZM17.6987 7.99033C17.7029 8.11827 17.6812 8.24575 17.6351 8.36517C17.589 8.48459 17.5194 8.59353 17.4304 8.6855C17.3413 8.77747 17.2347 8.8506 17.1168 8.90055C16.9989 8.95049 16.8722 8.97623 16.7442 8.97623C16.6162 8.97623 16.4895 8.95049 16.3716 8.90055C16.2538 8.8506 16.1471 8.77747 16.0581 8.6855C15.9691 8.59353 15.8994 8.48459 15.8533 8.36517C15.8072 8.24575 15.7856 8.11827 15.7897 7.99033C15.7897 7.73705 15.8903 7.49414 16.0694 7.31504C16.2485 7.13594 16.4914 7.03533 16.7447 7.03533C16.998 7.03533 17.2409 7.13594 17.42 7.31504C17.5991 7.49414 17.6987 7.73705 17.6987 7.99033ZM12.7337 5.89033C10.8437 5.89033 10.5357 5.89433 9.65673 5.93333C9.05673 5.96233 8.65573 6.04233 8.28273 6.18733C7.95173 6.31533 7.71273 6.46933 7.45773 6.72433C7.21773 6.95533 7.03473 7.23733 6.91973 7.54933C6.77473 7.92333 6.69473 8.32433 6.66673 8.92333C6.62673 9.76633 6.62273 10.0613 6.62273 12.0003C6.62273 13.8903 6.62773 14.1993 6.66673 15.0783C6.69573 15.6763 6.77573 16.0783 6.91973 16.4513C7.04973 16.7833 7.20273 17.0223 7.45673 17.2763C7.71373 17.5323 7.95273 17.6863 8.28173 17.8133C8.65873 17.9593 9.06073 18.0403 9.65673 18.0673C10.4997 18.1073 10.7947 18.1113 12.7337 18.1113C14.6237 18.1113 14.9327 18.1063 15.8117 18.0673C16.4087 18.0393 16.8117 17.9593 17.1847 17.8143C17.5147 17.6853 17.7557 17.5323 18.0097 17.2783C18.2667 17.0203 18.4197 16.7813 18.5467 16.4533C18.6927 16.0763 18.7737 15.6733 18.8007 15.0783C18.8407 14.2353 18.8447 13.9403 18.8447 12.0003C18.8447 10.1103 18.8397 9.80233 18.8007 8.92333C18.7727 8.32533 18.6927 7.92233 18.5467 7.54933C18.4316 7.23765 18.2481 6.95574 18.0097 6.72433C17.7789 6.48503 17.4968 6.3011 17.1847 6.18633C16.8107 6.04133 16.4087 5.96133 15.8117 5.93333C14.9687 5.89333 14.6737 5.89033 12.7337 5.89033ZM12.7337 4.36133C14.8097 4.36133 15.0687 4.36933 15.8827 4.40733C16.6967 4.44533 17.2497 4.57333 17.7377 4.76233C18.2417 4.95633 18.6667 5.21933 19.0907 5.64333C19.4797 6.02533 19.7807 6.48733 19.9717 6.99733C20.1607 7.48333 20.2887 8.03733 20.3267 8.85133C20.3627 9.66633 20.3727 9.92533 20.3727 12.0013C20.3727 14.0763 20.3647 14.3353 20.3267 15.1493C20.2887 15.9633 20.1607 16.5163 19.9717 17.0043C19.7807 17.5143 19.4797 17.9763 19.0917 18.3573C18.7096 18.7457 18.2476 19.0463 17.7377 19.2383C17.2507 19.4273 16.6957 19.5553 15.8827 19.5933C15.0687 19.6293 14.8097 19.6393 12.7337 19.6393C10.6587 19.6393 10.3997 19.6313 9.58473 19.5933C8.77173 19.5553 8.21773 19.4273 7.73073 19.2383C7.22064 19.0472 6.75851 18.7469 6.37673 18.3583C5.98844 17.9763 5.68813 17.5143 5.49673 17.0043C5.30673 16.5173 5.17873 15.9623 5.14073 15.1493C5.10473 14.3353 5.09473 14.0763 5.09473 12.0003C5.09473 9.92533 5.10273 9.66633 5.14073 8.85133C5.17873 8.03733 5.30673 7.48433 5.49573 6.99733C5.68773 6.48733 5.98773 6.02533 6.37673 5.64333C6.75859 5.25489 7.2207 4.95456 7.73073 4.76333C8.21773 4.57333 8.77073 4.44533 9.58473 4.40733C10.3997 4.37133 10.6587 4.36133 12.7347 4.36133H12.7337Z" fill="white"/>
</g>
</g>
<defs>
<clipPath id="clip0_298_6">
<rect width="24" height="24" fill="white" transform="translate(0.733887)"/>
</clipPath>
<clipPath id="clip1_298_6">
<rect width="24" height="24" fill="white" transform="translate(0.733887)"/>
</clipPath>
</defs>
</svg>
