<svg width="25" height="24" viewBox="0 0 25 24" fill="none" xmlns="http://www.w3.org/2000/svg">
<g clip-path="url(#clip0_131_8361)">
<path d="M8.50831 16.9596L9.06131 17.2836C10.3443 18.0299 11.8551 18.2837 13.3115 17.9976C14.768 17.7116 16.0705 16.9052 16.976 15.7291C17.8814 14.553 18.3279 13.0876 18.232 11.6064C18.1361 10.1252 17.5044 8.7296 16.4549 7.68006C15.4054 6.63053 14.0097 5.99885 12.5286 5.90296C11.0474 5.80707 9.58196 6.25353 8.40586 7.15898C7.22976 8.06443 6.4234 9.36697 6.13734 10.8234C5.85128 12.2799 6.10506 13.7906 6.85131 15.0736L7.17431 15.6266L6.67431 17.4606L8.50831 16.9606V16.9596ZM4.49831 19.6396L5.53131 15.8436C4.59799 14.2399 4.28031 12.3513 4.63759 10.5304C4.99488 8.7096 6.0027 7.08106 7.47286 5.94893C8.94301 4.8168 10.775 4.25848 12.6267 4.37824C14.4784 4.498 16.2232 5.28765 17.5352 6.59973C18.8473 7.9118 19.637 9.6566 19.7567 11.5083C19.8765 13.36 19.3182 15.1919 18.186 16.6621C17.0539 18.1323 15.4254 19.1401 13.6045 19.4974C11.7837 19.8547 9.89506 19.537 8.29131 18.6036L4.49831 19.6396ZM9.37831 8.41565C9.48048 8.40815 9.58302 8.40715 9.68531 8.41265L9.80931 8.42465C9.93031 8.43865 10.0643 8.51265 10.1093 8.61465C10.3373 9.13165 10.5593 9.65165 10.7723 10.1736C10.8203 10.2896 10.7923 10.4386 10.7023 10.5836C10.6393 10.6816 10.5723 10.7766 10.5003 10.8676C10.4143 10.9776 10.2283 11.1816 10.2283 11.1816C10.2283 11.1816 10.1533 11.2716 10.1823 11.3836C10.1923 11.4266 10.2283 11.4886 10.2603 11.5406L10.3053 11.6136C10.5003 11.9396 10.7633 12.2706 11.0843 12.5816C11.1753 12.6706 11.2643 12.7616 11.3613 12.8466C11.7192 13.1621 12.124 13.4199 12.5613 13.6106L12.5643 13.6116C12.6293 13.6396 12.6623 13.6556 12.7573 13.6956C12.8043 13.7156 12.8533 13.7326 12.9033 13.7456C12.9545 13.7586 13.0085 13.7561 13.0583 13.7385C13.1081 13.7209 13.1516 13.6889 13.1833 13.6466C13.7363 12.9766 13.7873 12.9336 13.7913 12.9336V12.9346C13.8298 12.8989 13.8755 12.8717 13.9254 12.855C13.9752 12.8383 14.028 12.8324 14.0803 12.8376C14.1267 12.8397 14.1724 12.8498 14.2153 12.8676C14.6213 13.0536 15.2853 13.3436 15.2853 13.3436L15.7293 13.5436C15.8043 13.5786 15.8723 13.6636 15.8743 13.7456C15.8773 13.7956 15.8823 13.8786 15.8643 14.0306C15.8424 14.223 15.7943 14.4114 15.7213 14.5906C15.6805 14.6753 15.6265 14.753 15.5613 14.8206C15.4839 14.9016 15.3992 14.9752 15.3083 15.0406C15.2771 15.0643 15.2454 15.0873 15.2133 15.1096C15.1183 15.1696 15.0203 15.2256 14.9203 15.2776C14.7237 15.3821 14.5066 15.4422 14.2843 15.4536C14.1423 15.4606 14.0013 15.4716 13.8593 15.4636L13.4253 15.3976C12.3394 15.1119 11.3351 14.5767 10.4923 13.8346C10.3193 13.6826 10.1603 13.5196 9.99631 13.3566C9.31631 12.6806 8.80331 11.9506 8.49131 11.2616C8.33174 10.9235 8.24551 10.5555 8.23831 10.1816C8.23554 9.71829 8.38718 9.26722 8.66931 8.89965C8.72531 8.82765 8.77831 8.75265 8.86931 8.66665C8.93508 8.59802 9.01055 8.53939 9.09331 8.49265C9.18181 8.44807 9.27842 8.42188 9.37731 8.41565H9.37831Z" fill="white"/>
</g>
<defs>
<clipPath id="clip0_131_8361">
<rect width="24" height="24" fill="white" transform="translate(0.134277)"/>
</clipPath>
</defs>
</svg>
